<?xml version="1.0" standalone="no"?>
<!DOCTYPE svg PUBLIC "-//W3C//DTD SVG 1.1//EN" "http://www.w3.org/Graphics/SVG/1.1/DTD/svg11.dtd" >
<svg xmlns="http://www.w3.org/2000/svg">
<metadata>
Created by FontForge 20120731 at Wed Dec  2 15:32:07 2015
 By Ads
</metadata>
<defs>
<font id="iconfont" horiz-adv-x="1024" >
  <font-face 
    font-family="iconfont"
    font-weight="500"
    font-stretch="normal"
    units-per-em="1024"
    panose-1="2 0 6 3 0 0 0 0 0 0"
    ascent="896"
    descent="-128"
    x-height="792"
    bbox="34 -116 956 792"
    underline-thickness="50"
    underline-position="-100"
    unicode-range="U+0078-E633"
  />
<missing-glyph horiz-adv-x="374" 
d="M34 0v682h272v-682h-272zM68 34h204v614h-204v-614z" />
    <glyph glyph-name=".notdef" horiz-adv-x="374" 
d="M34 0v682h272v-682h-272zM68 34h204v614h-204v-614z" />
    <glyph glyph-name=".null" horiz-adv-x="0" 
 />
    <glyph glyph-name="nonmarkingreturn" horiz-adv-x="341" 
 />
    <glyph glyph-name="x" unicode="x" horiz-adv-x="1001" 
d="M281 543q-27 -1 -53 -1h-83q-18 0 -36.5 -6t-32.5 -18.5t-23 -32t-9 -45.5v-76h912v41q0 16 -0.5 30t-0.5 18q0 13 -5 29t-17 29.5t-31.5 22.5t-49.5 9h-133v-97h-438v97zM955 310v-52q0 -23 0.5 -52t0.5 -58t-10.5 -47.5t-26 -30t-33 -16t-31.5 -4.5q-14 -1 -29.5 -0.5
t-29.5 0.5h-32l-45 128h-439l-44 -128h-29h-34q-20 0 -45 1q-25 0 -41 9.5t-25.5 23t-13.5 29.5t-4 30v167h911zM163 247q-12 0 -21 -8.5t-9 -21.5t9 -21.5t21 -8.5q13 0 22 8.5t9 21.5t-9 21.5t-22 8.5zM316 123q-8 -26 -14 -48q-5 -19 -10.5 -37t-7.5 -25t-3 -15t1 -14.5
t9.5 -10.5t21.5 -4h37h67h81h80h64h36q23 0 34 12t2 38q-5 13 -9.5 30.5t-9.5 34.5q-5 19 -11 39h-368zM336 498v228q0 11 2.5 23t10 21.5t20.5 15.5t34 6h188q31 0 51.5 -14.5t20.5 -52.5v-227h-327z" />
    <glyph glyph-name="uniE600" unicode="&#xe600;" 
d="M512 591q-120 0 -205.5 -85.5t-85.5 -205.5t85.5 -205.5t205.5 -85.5t205.5 85.5t85.5 205.5t-85.5 205.5t-205.5 85.5zM512 44q-106 0 -181 75t-75 181t75 181t181 75q70 0 129 -34t93 -93t34 -129q0 -52 -20 -99.5t-54.5 -82t-82 -54.5t-99.5 -20zM371 236l25 -23
l116 124l116 -124l25 23l-141 151z" />
    <glyph glyph-name="uniE601" unicode="&#xe601;" 
d="M803 300q0 120 -85.5 205.5t-205.5 85.5t-205.5 -85.5t-85.5 -205.5t85.5 -205.5t205.5 -85.5q79 0 146 39t106 106t39 146zM768 300q0 -70 -34 -129t-93 -93t-129 -34q-106 0 -181 75t-75 181t75 181t181 75t181 -75t75 -181zM371 364l25 23l116 -124l116 124l25 -23
l-141 -151z" />
    <glyph glyph-name="uniE602" unicode="&#xe602;" 
d="M640 316h-113v113q0 15 -15 15q-6 0 -10.5 -4.5t-4.5 -10.5v-113h-113q-4 0 -7.5 -2t-5.5 -5.5t-2 -7.5q0 -3 1.5 -5.5t3.5 -4.5t4.5 -3.5t5.5 -1.5h113v-113q0 -6 4.5 -10.5t10.5 -4.5t10.5 4.5t4.5 10.5v113h113q6 0 10.5 4.5t4.5 10.5t-4.5 10.5t-10.5 4.5zM512 587
q-77 0 -143 -38.5t-104.5 -104.5t-38.5 -143q0 -118 84 -201.5t202 -83.5t202 83.5t84 201.5q0 58 -23 111t-61 91t-91 61t-111 23zM512 35q-110 0 -188 78t-78 188t78 188t188 78q72 0 133.5 -35.5t97 -97t35.5 -133.5q0 -114 -84 -193q-77 -72 -182 -73z" />
    <glyph glyph-name="uniE603" unicode="&#xe603;" 
d="M652 366l-160 -162q-6 -7 -15 -7t-15 7l-90 91q-6 7 -6 16q0 4 1.5 8t4.5 7t7 4.5t8 1.5q9 0 15 -6l75 -76l145 146q3 3 7 5t8 2q9 0 15 -6.5t6 -15.5t-6 -15zM512 13q-119 0 -203 84t-84 203t84 203t203 84t203 -84t84 -203t-84 -203t-203 -84zM512 546
q-67 0 -123.5 -33t-89.5 -89.5t-33 -123.5t33 -123.5t89.5 -89.5t123.5 -33q50 0 95.5 19.5t78.5 52.5t52.5 78.5t19.5 95.5q0 108 -80 182q-71 64 -166 64z" />
    <glyph glyph-name="uniE604" unicode="&#xe604;" 
d="M436 269l-31 31l31 32l232 233q4 4 5.5 10t0 11.5t-5.5 9.5q-3 3 -7 5t-8.5 2t-8.5 -2t-7 -5l-279 -280q-7 -7 -7 -16t7 -16l279 -280q3 -3 7 -5t8.5 -2t8.5 2t7 5q7 6 7 15.5t-7 15.5z" />
    <glyph glyph-name="uniE605" unicode="&#xe605;" 
d="M538 258v25h-38l30 51l-22 13l-37 -64h-9l-39 63l-23 -13l32 -50h-44v-25h62v-25h-62v-25h62v-50h25v50h63v25h-63v25h63zM813 174h-125v226h-376v125h501v-351zM713 199h75v301h-451v-75h376v-226zM713 74h-501v351h501v-351zM237 99h451v301h-451v-301z" />
    <glyph glyph-name="uniE606" unicode="&#xe606;" 
d="M573 428q0 25 -18 42.5t-43 17.5q-12 0 -23.5 -5t-19.5 -13t-13 -19t-5 -23q0 -25 18 -42.5t43 -17.5q10 0 19 3t16.5 9t13.5 13t9 16t3 19zM706 596h-388q-28 0 -52 -13.5t-37.5 -37.5t-13.5 -52v-388q0 -43 30 -73t73 -30h388q28 0 52 13.5t37.5 37.5t13.5 52v388
q0 28 -13.5 52t-37.5 37.5t-52 13.5zM512 539q42 0 78 -21t56.5 -56t20.5 -77q0 -31 -17.5 -76.5t-41.5 -85.5t-49.5 -69t-41.5 -29q-17 0 -45 29t-53 69t-43.5 85.5t-18.5 76.5q0 75 60 121q42 32 95 33zM706 59h-388v26h388v-26z" />
    <glyph glyph-name="uniE607" unicode="&#xe607;" 
d="M499 391v-145l101 -103l19 18l-93 96v134h-27zM513 550q-30 0 -59 -6.5t-56 -19.5l36 66l-23 13l-57 -104v0l103 -57l13 22l-63 35q51 24 106 24q103 0 176.5 -73t73.5 -176.5t-73.5 -176.5t-176.5 -73t-176 72.5t-74 175.5h-26q0 -113 81 -194t195 -81t195 81t81 195.5
t-81 195.5t-195 81z" />
    <glyph glyph-name="uniE608" unicode="&#xe608;" 
d="M783 411l-145 52l-8 -23l128 -47v-214h-54q-1 7 -3 14t-5.5 13.5t-8 12t-9.5 10.5t-11.5 8.5t-13 6t-14 4t-14.5 1.5q-17 0 -31.5 -6.5t-25.5 -17t-17.5 -25.5t-6.5 -31q0 -34 23.5 -57.5t57.5 -23.5q19 0 36 9t28 24t15 33h79v257zM625 113q-12 0 -22 4.5t-17.5 12
t-12 17.5t-4.5 22q0 23 16.5 39t39.5 16t39 -16t16 -39t-16 -39.5t-39 -16.5zM414 249q-30 0 -52.5 -20t-26.5 -50h-66v309h334v-197h99v24h-74v198h-384v-359h91q5 -28 27.5 -47t51.5 -19q34 0 57.5 23.5t23.5 57t-23.5 57t-57.5 23.5zM414 113q-23 0 -39 16.5t-16 39.5
t16 39t39 16t39.5 -16t16.5 -39t-16.5 -39.5t-39.5 -16.5zM506 179h25v-25h-25v25z" />
    <glyph glyph-name="uniE609" unicode="&#xe609;" 
d="M613 302h-96v139q0 6 -4.5 10.5t-11 4.5t-11 -4.5t-4.5 -10.5v-155q0 -3 1 -5.5t3 -4.5l2 -2q2 -2 4.5 -3t5.5 -1h112q7 0 11.5 4.5t4.5 11.5q-1 7 -5.5 11.5t-11.5 4.5zM613 302zM696 219q-14 0 -27.5 -4t-25.5 -10.5t-21.5 -16.5t-16.5 -21.5t-11 -25.5t-4 -28
q0 -29 14.5 -53.5t39 -38.5t52.5 -14q44 0 75.5 31t31.5 75q0 21 -8.5 41t-23 34t-34 22.5t-41.5 8.5zM732 99q3 0 5.5 -1.5t4 -4t1.5 -5.5q0 -4 -3.5 -7.5t-7.5 -3.5h-23v-22q0 -5 -3.5 -8t-7.5 -3q-5 0 -8 3.5t-3 7.5v22h-26q-2 0 -4 1t-3.5 2.5t-2.5 3.5t-1 4q2 10 11 11
h26v13h-25q-2 0 -4 1t-3.5 2.5t-2.5 3.5t-1 4q0 4 3.5 7.5t7.5 3.5h15l-18 17q-6 8 0 16l4 2q2 1 4 1t4 -1t3 -2l21 -21l21 21q9 8 17 0t0 -16l-18 -17h16q3 0 5.5 -2t4 -4.5t1.5 -4.5q0 -5 -3.5 -8t-7.5 -3h-25v-13h26zM562 25q0 5 -3.5 8.5t-8.5 2.5q-21 -3 -38 -3
q-110 0 -188 78t-78 188t78 188t188 78q72 0 133.5 -35.5t97 -96.5t35.5 -134l-4 -46q-3 -13 10 -13h1q2 0 4 1l4 2q2 1 3.5 2.5t2.5 3.5t1 4q0 3 1 8t2 17t1 21q0 80 -39 147t-106.5 106t-146.5 39q-121 0 -206.5 -85.5t-85.5 -206t85.5 -206.5t206.5 -86l38 3q5 1 8.5 5
t3.5 10v0z" />
    <glyph glyph-name="uniE60A" unicode="&#xe60a;" 
d="M733.5 166q-26.5 0 -49.5 -13t-36 -36t-13 -50q0 -41 29 -70t69.5 -29t69.5 29t29 70q0 27 -13.5 50t-36 36t-49 13zM798 93l-71 -70q-9 -10 -16 -3l-42 42q-3 3 -3 7t3 7q7 7 14 0l34 -35l68 66q2 3 6.5 3t6.5 -3q2 -1 2.5 -3t0.5 -4t-0.5 -4t-2.5 -3zM407 564h151
q3 0 7 1t7 3t6 5.5t5 7t3 8t1 8.5q0 14 -9 24t-21 10h-150q-13 0 -21.5 -10t-8.5 -24q0 -9 4 -16.5t10.5 -12t15.5 -4.5zM722 197q26 0 49 -10v331q0 23 -8 40t-25 27t-42 10h-68q1 -6 1 -11q0 -14 -6 -27t-16.5 -21t-22.5 -8h-208q-10 0 -18.5 4.5t-14.5 12.5t-9.5 18
t-3.5 21v3q0 2 0.5 4t0.5 4h-69q-39 0 -54 -20t-15 -57v-450q0 -38 17 -57t56 -19h360q-28 35 -28 80q0 65 53 102q32 23 71 23zM338 424h295q8 0 14 -6.5t7 -15.5q0 -8 -7 -15.5t-15 -7.5h-296q-8 0 -13 7t-5 16q0 8 6 15t14 7zM471 127h-135q-4 0 -7.5 2t-5.5 5.5
t-3.5 7.5t-1.5 8q0 8 6 15t14 7h135q3 0 6 -1t5.5 -3.5t4.5 -5t3 -6t1 -6.5q0 -8 -7 -15.5t-15 -7.5zM335 251q-4 0 -8 2.5t-7 6t-5 8t-2 8.5q0 5 3 9.5t7.5 7.5t9.5 3h295q5 0 10 -2.5t8 -7.5t3 -10q0 -6 -2.5 -11.5t-6.5 -9.5t-9 -4h-296z" />
    <glyph glyph-name="uniE60B" unicode="&#xe60b;" 
d="M679 197q-33 0 -61.5 -17.5t-44.5 -45.5l-143 83q13 25 13 53q0 30 -14 56l160 91q36 -41 90 -41q51 0 87 36t36 87t-36 86.5t-86.5 35.5t-86.5 -35.5t-36 -86.5q0 -29 13 -55l-160 -91q-36 40 -90 40q-10 0 -20 -2t-19 -5t-17.5 -7.5t-16 -10t-14 -12t-12 -14t-10 -16
t-7.5 -17.5t-5 -19t-2 -20q0 -25 10 -47.5t26.5 -39t39 -26.5t47.5 -10q27 0 51 11.5t41 30.5l148 -86q-1 -7 -2 -14.5t-1 -14.5q0 -25 9.5 -47.5t26 -39t39.5 -26.5t47 -10q34 0 62 16.5t44.5 45t16.5 61.5t-16.5 61.5t-44.5 45t-62 16.5zM679.5 589q37.5 0 63.5 -26.5
t26 -63.5t-26 -63.5t-63.5 -26.5t-63.5 26.5t-26 63.5t26 63.5t63.5 26.5zM320 180q-37 0 -63.5 26.5t-26.5 63.5t26.5 63.5t63.5 26.5t63.5 -26.5t26.5 -63.5t-26.5 -63.5t-63.5 -26.5zM679 -16q-10 0 -20 2.5t-19 7t-16.5 10.5t-14 14t-11 16.5t-6.5 18.5t-2 21
q0 18 7 34.5t19 29t28.5 19.5t34.5 7q38 0 64 -26.5t26 -63.5t-26 -63.5t-64 -26.5z" />
    <glyph glyph-name="uniE60C" unicode="&#xe60c;" 
d="M554 443h87l-201 -201q-5 -5 0 -10l11 -11q6 -6 11 0l201 201v-88q0 -3 2 -5t5 -2h15q7 0 7 7v116v15q0 3 -2 5t-5 2h-15h-116q-7 0 -7 -7v-15q1 -5 7 -7zM663 443h-1h1zM736 295q-1 -60 -31 -111t-81.5 -80t-111.5 -29q-93 0 -158.5 65.5t-65.5 158.5q0 91 62.5 156
t152.5 68v30q-102 -3 -173.5 -77t-71.5 -177q0 -69 34 -127.5t92.5 -92.5t127.5 -34q104 0 178.5 73t75.5 177h-30z" />
    <glyph glyph-name="uniE60D" unicode="&#xe60d;" 
d="M753 538l-3 3q-15 15 -34 24.5t-39 12t-40 0t-39 -12t-34 -24.5l-119 -119q-19 -19 -29 -44t-10 -50t10 -49.5t29 -43.5l2 -2q3 -3 6.5 -6t7.5 -6l43 44q-4 2 -7.5 4.5t-6.5 6.5l-2 2q-11 10 -16 23.5t-5 27t5 27t16 23.5l119 119q20 21 50 21t51 -21l2 -2
q10 -11 15.5 -24t5.5 -27t-5.5 -27t-15.5 -23l-54 -54q7 -17 10.5 -35.5t2.5 -36.5l83 83q39 38 39 93t-38 93v0zM577 367q-6 6 -14 12l-43 -44q8 -4 14 -11l2 -2q11 -10 16 -23.5t5 -27t-5 -27t-16 -23.5l-119 -119q-20 -21 -50 -21t-51 21l-2 2q-21 21 -21 51t21 50l54 54
q-7 17 -10.5 35.5t-2.5 36.5l-84 -83q-38 -38 -38 -93t38 -93l3 -3q38 -38 93 -38t93 38l119 119q25 26 34 60t0 68t-34 59l-2 2v0zM577 367z" />
    <glyph glyph-name="uniE60E" unicode="&#xe60e;" 
d="M515 583q-118 0 -201 -83t-83 -200.5t83 -200.5t200.5 -83t200.5 83t83 201q0 77 -38 142t-103 103t-142 38zM652 185l-23 -22l-114 114l-115 -114l-23 22l115 115l-115 114l23 23l115 -115l114 115l23 -23l-115 -114z" />
    <glyph glyph-name="uniE60F" unicode="&#xe60f;" 
d="M703 591h-382q-42 0 -71.5 -29.5t-29.5 -72.5v-381q0 -42 29.5 -72t71.5 -30h382q42 0 71.5 30t29.5 72v381q0 28 -13.5 51.5t-37 37t-50.5 13.5zM296 294q-1 3 10 12.5t32 22.5l-37 77l-1 1q-4 8 92 54q17 8 33.5 15t29 12.5t23 9t16 4.5t6.5 0v-1l37 -77q55 19 58 12
q4 -7 -38 -32q-36 3 -72.5 -4.5t-71.5 -25.5q-52 -27 -73 -72q-41 -14 -44 -8zM683 126q-72 -38 -163 -29t-143 55q-33 29 -40.5 70t14.5 80.5t69 63.5q57 30 116 31t114 -27q17 -9 30.5 -20t21.5 -22t12.5 -22t5.5 -22t0 -20.5t-5 -17.5q-17 -42 -81.5 -62t-115.5 -14
q-14 2 -25.5 5t-18.5 5.5t-13 6.5t-8.5 6t-6.5 5l-4 5q-5 4 -9.5 11.5t-7.5 16t1 13.5q5 5 13.5 4.5t19 -4.5t18.5 -11q17 -14 16 -39q-7 2 -13 5.5t-9.5 6.5t-6.5 6t-4 5l-1 2q5 -13 14.5 -20t21.5 -10q31 -9 76.5 1.5t71.5 29.5q57 45 19 96q-16 21 -51.5 33.5t-77.5 11.5
t-76 -16q-47 -20 -69.5 -62.5t2.5 -82.5q30 -43 91.5 -59.5t127.5 -2t108 56.5q7 -5 9.5 -11t1 -13t-7 -15t-15.5 -15.5t-22 -14.5zM498 286q0 11 4.5 18.5t11.5 7.5q3 0 5.5 -2t5 -5.5t3.5 -8.5t1 -10t-1 -10t-3.5 -8.5t-5 -5.5t-6 -2t-6 2t-5 5.5t-3.5 8.5t-1 10zM569 286
q0 11 4.5 18.5t11 7.5t11 -7.5t4.5 -18.5t-4.5 -18.5t-11.5 -7.5q-4 0 -7.5 3.5t-5.5 9.5t-2 13z" />
    <glyph glyph-name="uniE610" unicode="&#xe610;" 
d="M522 219v181h-20v-181l-95 78l-13 -16l118 -97l118 97l-13 16zM512 588q-120 0 -204.5 -84.5t-84.5 -204.5q0 -78 38.5 -145t105.5 -105.5t145 -38.5q120 0 204.5 84.5t84.5 204.5q0 122 -87 207q-85 82 -202 82zM512 30q-111 0 -190 79t-79 190q0 73 36 135t98 98
t135 36q111 0 190 -79t79 -190q0 -115 -84 -195q-78 -73 -185 -74z" />
    <glyph glyph-name="uniE611" unicode="&#xe611;" 
d="M588.5 272.5q-13.5 5.5 -19.5 -7.5q0 -1 -0.5 -2t-2.5 -4t-4.5 -5.5t-6.5 -6t-9 -5.5t-12 -4t-14 -2q-17 0 -29 7t-15.5 12t-4.5 9q-5 13 -19 9q-6 -2 -8.5 -7t-0.5 -11q1 -2 2.5 -5.5t7.5 -11.5t13.5 -14t22 -11t31.5 -5q16 0 29.5 5t21.5 11t14.5 13.5t8.5 11t3 5.5
q5 13 -8.5 18.5zM708 598h-389q-43 0 -73.5 -30.5t-30.5 -73.5v-390q0 -43 30.5 -73t73.5 -30h389q29 0 52.5 13.5t37.5 37.5t14 52v390q0 43 -30.5 73.5t-73.5 30.5zM514 115q-25 0 -49 7l-81 -36q-2 -1 -4 -1q-6 0 -9 4q-6 7 -1 14l30 50q-39 28 -60 70.5t-21 90.5
q0 83 57 141t137.5 58t137.5 -58t57 -141q0 -92 -68 -151q-56 -47 -126 -48z" />
    <glyph glyph-name="uniE612" unicode="&#xe612;" 
d="M595 497h-1h1zM513 617l-36 -2q-43 -5 -83 -21l220 -220v226q-9 3 -19 6q-10 2 -20 4.5t-21 3.5l-20 2q-11 1 -21 1v0zM595 497h-1h1v0zM710 383v0v0zM736 525q-6 6 -12.5 12t-13.5 12q-34 26 -74 43q2 -300 0 -310l160 159q-1 3 -2 5t-2 4.5t-2.5 4.5t-2.5 4
q-11 18 -23.5 34.5t-27.5 31.5v0zM710 383v0v0zM710 217v0v0zM807 416l-220 -219h226q3 9 6 20q5 19 8 39.5t3 41.5q0 9 -0.5 18t-1.5 18q-5 43 -21 82v0zM710 217v0v0zM594 101h-1v-1zM492 173l160 -159l18 10q36 20 66 50q12 12 24 27q27 33 43 72h-79h-147h-85v0z
M594 101l-1 -1v1h1v0zM430 101v0v0zM410 224v-226q10 -3 19 -6q41 -11 83 -11q9 0 18 0.5t18 1.5q42 5 82 21l-12 12q-12 12 -31 30.5t-42 41.5l-46 46l-43 42l-32 33q-13 13 -14 15v0zM430 101v0v0zM314 216v1v-1zM387 318l-159 -160l9 -18q21 -36 51 -65q12 -13 26 -24
q34 -27 74 -44q0 -1 -0.5 31.5t-0.5 75.5v90v78v36v0zM314 216v1v-1v0zM314 381v0v0zM205 381q-3 -13 -5.5 -26.5t-4 -27.5t-1.5 -28q0 -17 3 -35q4 -43 20 -83q213 214 220 220h-226q-3 -9 -6 -20v0zM314 381v0v0zM429 496h1h-1zM353 573q-37 -21 -66 -50q-12 -12 -24 -27
q-14 -17 -24.5 -35t-19.5 -38h312l-160 160q-10 -5 -18 -10v0zM429 496h1h-1v0zM429 496z" />
    <glyph glyph-name="uniE613" unicode="&#xe613;" 
d="M604 281h-183q-3 0 -6 -2t-4.5 -5.5t-1.5 -6.5t2 -6t5.5 -4.5t7.5 -1.5h179q2 0 4 0.5t4 1.5t3 2.5t2 3.5t1 4q-1 14 -13 14zM705 594h-384q-28 0 -51.5 -14t-37 -37.5t-13.5 -51.5v-384q0 -42 30 -72t72 -30h384q43 0 73 30t30 72v384q0 28 -14 51.5t-37.5 37.5
t-51.5 14zM469 504h85h1t2.5 -1t3.5 -2t4 -2.5t3.5 -3.5t2.5 -5t1 -7t-1.5 -7.5t-4.5 -5.5t-7 -3t-7 -1h-77q-9 0 -17 4.5t-8 12.5q0 9 5.5 15t13.5 6zM693 143q0 -26 -12.5 -37.5t-37.5 -11.5h-264q-24 0 -34.5 12t-10.5 37v285q0 26 7.5 38t30.5 12h52q1 -1 0 -9t5.5 -18
t19.5 -11h128q13 0 19.5 9.5t6.5 19.5v9h38h13q22 0 30.5 -12.5t8.5 -37.5v-285zM603 358h-179q-6 0 -10.5 -4t-4.5 -9t4.5 -9t10.5 -4h179q5 0 9.5 4t4.5 9t-4.5 9t-9.5 4zM603 204h-179q-5 0 -8.5 -1t-5.5 -2.5t-3 -3.5t-1 -5q0 -6 4 -10t14 -4h179q11 0 11 14
q-1 12 -11 12z" />
    <glyph glyph-name="uniE614" unicode="&#xe614;" 
d="M512 1q-81 0 -149.5 40t-108.5 109t-40 150q0 123 87.5 211t210.5 88q30 0 60 -6t57.5 -18t52.5 -29l-6 -9q-18 12 -38 21.5t-40.5 16t-42 10t-43.5 3.5q-78 0 -144 -38.5t-104.5 -105t-38.5 -144.5q0 -119 84 -203.5t203 -84.5t203 84.5t84 203.5q0 95 -55 171l8 6
q58 -79 58 -177q0 -81 -40 -150t-108.5 -109t-149.5 -40zM335 329h116v-24h-116v24zM373 369h116v-24h-116v24zM561 407h-125v-23h125q27 0 62.5 -39.5t41.5 -59.5v-31h-24q-3 11 -9.5 19.5t-17 13.5t-21.5 5q-39 0 -48 -38h-25q-4 17 -17.5 27.5t-30.5 10.5t-30.5 -10.5
t-17.5 -27.5h-18v21h-24v-22q0 -8 6 -15t16 -7h20q3 -11 9.5 -19.5t17 -13.5t21.5 -5q17 0 30.5 10.5t17.5 27.5h25q2 -8 6.5 -15t10.5 -12t14 -8t17 -3q17 0 30.5 10.5t17.5 27.5h25q6 0 11 2.5t8.5 7.5t3.5 12v33q0 6 -7.5 19.5t-20.5 31t-29 33t-35 26.5t-36 11zM472 216
q-11 0 -18.5 8t-7.5 18.5t7.5 18.5t18.5 8t18.5 -8t7.5 -18q0 -8 -3.5 -14t-9.5 -9.5t-13 -3.5zM593 216q-11 0 -18.5 8t-7.5 18.5t7.5 18.5t18.5 8t18.5 -8t7.5 -18.5t-7.5 -18.5t-18.5 -8z" />
    <glyph glyph-name="uniE615" unicode="&#xe615;" 
d="M273 458v-361q0 -35 25 -60t61 -25h308q36 0 61 25t25 60v361h-480zM719 97q0 -21 -15 -36t-37 -15h-308q-14 0 -26 7t-19 19t-7 25v326h412v-326zM376 372h34v-257h-34v257zM496 372h34v-257h-34v257zM616 372h34v-257h-34v257zM736 552h-137v34h-172v-34h-137v-34h446
v34z" />
    <glyph glyph-name="uniE616" unicode="&#xe616;" 
d="M668 258q0 -8 -5.5 -13t-14 -5t-14.5 5t-6 13v7h-232v-7q0 -8 -5.5 -13t-14.5 -5q-4 0 -7.5 1.5t-6.5 3.5t-4.5 5.5t-1.5 7.5v7h-151v-237q0 -24 19 -41t47 -17h483q27 0 46.5 17t19.5 41v237h-152v-7zM754 467h-47q-4 65 -57 112q-57 50 -138 50q-39 0 -74.5 -13
t-63.5 -37q-8 -8 -15.5 -16t-13.5 -17t-11 -18.5t-8 -19.5t-5.5 -20.5t-2.5 -20.5h-47q-11 0 -21 -3t-18 -8.5t-14 -12.5t-9.5 -16t-3.5 -19v-107h151v8q0 7 6 12t14 5q6 0 10.5 -2t7 -6.5t2.5 -8.5v-8h232v8q0 7 6 12t14.5 5t14 -5t5.5 -12v-8h152v107q0 10 -3.5 19
t-9.5 16t-14 12.5t-18 8.5t-21 3zM333 380q-7 0 -12.5 2t-10 6t-7 9t-2.5 11q0 17 16 25v-18q0 -6 4.5 -10t11 -4t11.5 4t5 10v18q7 -4 11.5 -10.5t4.5 -14.5q0 -4 -1.5 -8.5t-4.5 -8t-7 -6t-9 -4t-10 -1.5zM349 467q5 56 52 95.5t111 39.5q32 0 61.5 -11t51 -29t35 -42.5
t16.5 -52.5h-327zM692 380q-7 0 -12.5 2t-10 6t-7 9t-2.5 11v4l2 4q0 2 0.5 3.5t1.5 3t2 3.5l4 2q1 2 2.5 3t3.5 2v-18q0 -6 4.5 -10t11 -4t11.5 4t5 10v18q2 -2 4.5 -3.5t4.5 -4t3.5 -5.5t2.5 -6t1 -6q0 -12 -9.5 -20t-22.5 -8z" />
    <glyph glyph-name="uniE617" unicode="&#xe617;" 
d="M359 429q14 0 14 12q0 35 19 65t50.5 47.5t69.5 17.5t69.5 -17.5t50.5 -47.5t19 -65q0 -5 3.5 -8.5t10.5 -3.5q16 0 16 14q0 66 -49.5 113t-119.5 47t-119.5 -47t-49.5 -113q0 -14 16 -14zM775 381q-15 18 -44 18h-2h-3h-5l-417 -1q-5 1 -11 1q-12 0 -24 -4t-20 -14
q-16 -18 -12 -50q8 -61 49 -292q3 -15 17.5 -28.5t39.5 -13.5h338q25 0 39.5 14t17.5 28v1q41 230 49 291q4 32 -12 50zM752 332q-7 -58 -47 -282v-1q-4 -18 -28 -18h-330q-23 0 -28 18l-47 283q-3 18 4 26q4 5 10 6.5t12 1.5q3 0 7 -1h1h1h411h1l7 1q15 0 22 -8t4 -26z
M522 313q0 1 -1 1v1h-1q0 1 -1 1v0h-1v1h-1h-1h-1q-3 1 -6 0h-1h-1h-1v-1h-1h-1v-1v0h-1v-1h-1v0v-1l-98 -98q-10 -11 0 -21q2 -2 4.5 -3t5.5 -1q6 0 10 4l74 74v-154q0 -3 1 -5.5t3 -5.5q4 -4 10 -4t10 4q4 5 4 11v154l74 -74q4 -4 10 -4q6 1 10 4q2 2 3 5t1 6q0 1 -0.5 3
t-1 3.5t-2.5 3.5z" />
    <glyph glyph-name="uniE618" unicode="&#xe618;" 
d="M858 349q-2 10 -8.5 19.5t-15.5 16t-19 8.5l-10 3q-35 10 -53 41t-10 66l3 10q5 15 0 32t-17 27q-2 2 -5 4t-13 8.5t-23 14.5q-6 3 -11.5 6t-9.5 5.5t-8 4t-6.5 2.5t-4.5 2t-2.5 1.5t-1.5 0.5q-14 5 -32 1t-28 -16l-7 -7q-13 -12 -29 -18.5t-34 -6.5q-37 0 -62 25l-8 7
q-10 11 -27.5 15.5t-32.5 -0.5q-14 -5 -44 -22t-41 -27q-12 -10 -17 -27t0 -32l3 -9q2 -12 2 -23.5t-3 -22.5t-9 -21q-18 -31 -52 -41l-11 -3q-15 -3 -27.5 -16t-15.5 -28q-2 -15 -2 -49q0 -15 0.5 -27t1 -15.5t0.5 -5.5q3 -16 15.5 -29t27.5 -16l9 -2q17 -5 31 -16t23 -26
t11.5 -32.5t-1.5 -33.5l-3 -10q-3 -7 -2.5 -15.5t3 -16.5t6.5 -15t10 -12l2 -2q1 -1 4.5 -3.5t8 -5t11.5 -7t15 -9.5q30 -17 44 -22q15 -5 32.5 -0.5t27.5 15.5l7 7q26 25 63 25t63 -25l7 -7q16 -18 43 -18q9 0 17 3q13 5 44 22q13 8 23 14.5t13 8.5t5 4q12 10 17 27t0 32
l-3 9q-8 36 10 67q4 6 8 11.5t9.5 10t11 8.5t12 7t13.5 5l9 2q15 3 27.5 16t15.5 29q2 14 2 48q0 35 -2 49zM827 257q-1 -3 -3 -6t-4.5 -6t-5.5 -5t-6 -2l-23 -6v-1q-19 -8 -34.5 -21t-25.5 -31q-25 -42 -13 -91l3 -10q1 -4 0.5 -9t-2.5 -9.5t-6 -7.5q0 -1 -3 -3l-12 -8
q-9 -6 -21 -12q-27 -16 -39 -20l-6 -1q-13 0 -20 7l-12 13h-1q-34 29 -80 29q-49 0 -86 -34l-7 -8q-4 -4 -12.5 -6t-13.5 0q-12 4 -39 20q-23 13 -36 23q-3 3 -5.5 7.5t-3 9.5t0.5 9l3 11q6 23 2.5 46t-15.5 44q-25 42 -73 56l-10 3q-6 1 -12 7t-7 12l-2 43q0 36 2 43
q1 6 7 12t12 8l12 2q47 14 71.5 56.5t12.5 90.5l-3 10q-1 3 -1 5.5t0.5 5.5t2 6t3 5.5t3.5 3.5q17 12 36 23q27 16 39 20q5 2 13.5 0t12.5 -6l8 -9q36 -33 85 -33t85 34l8 8q4 4 12.5 6t13.5 0q1 0 2 -0.5t4.5 -2t7.5 -3.5l11 -5q7 -4 14 -9q12 -6 21.5 -12.5t11.5 -8
t3 -2.5q2 -1 3.5 -3.5t3 -5.5t2 -6t0.5 -5.5t-1 -5.5l-3 -11q-12 -47 13 -90q6 -10 13.5 -18.5t16.5 -16t19.5 -13t22.5 -8.5l11 -2q6 -2 12 -8t7 -12q2 -16 2 -43q0 -8 -0.5 -15.5t-0.5 -12.5t-0.5 -8.5t-0.5 -5.5v-1zM513 440q-58 0 -99.5 -41t-41.5 -99t41.5 -99
t99.5 -41t99.5 41t41.5 99t-41.5 99t-99.5 41zM513 191q-30 0 -55 14.5t-40 40t-15 54.5q0 45 32.5 77t77.5 32t77.5 -32t32.5 -77q0 -29 -15 -54.5t-40 -40t-55 -14.5z" />
    <glyph glyph-name="uniE619" unicode="&#xe619;" 
d="M419.5 342q17.5 0 29.5 12t12 29q0 28 -26 39q-7 3 -15 3q-12 0 -21.5 -5.5t-15 -15t-5.5 -21.5q0 -17 12 -29t29.5 -12zM603 342q18 0 30 12t12 29t-12 29.5t-29.5 12.5t-29.5 -12.5t-12 -29.5q0 -28 26 -38q8 -3 15 -3zM647 198q-9 19 -23 34.5t-31 27t-38 17.5t-43 6
q-44 0 -80.5 -23t-55.5 -62q-1 -3 -1 -7q0 -3 1 -6t3 -5t5 -3t6 -1q10 0 14 9q10 20 26 35t37.5 23.5t44.5 8.5q35 0 64 -18.5t43 -48.5q2 -4 6 -7t9 -3q3 0 6 1.5t5 3.5t3 5t1 6q0 4 -2 7zM512 5q-122 0 -208.5 86.5t-86.5 208.5t86.5 208.5t208.5 86.5q34 0 67.5 -7.5
t62.5 -22t54.5 -35t46 -46t35 -54.5t22 -62.5t7.5 -67.5q0 -80 -39.5 -148t-107.5 -107.5t-148 -39.5zM512 554q-105 0 -179.5 -74.5t-74.5 -179.5t74.5 -179.5t179.5 -74.5q52 0 98.5 20.5t80.5 54.5t54.5 80.5t20.5 98.5q0 105 -74.5 179.5t-179.5 74.5z" />
    <glyph glyph-name="uniE61A" unicode="&#xe61a;" 
d="M296 571q3 -5 8 -9t14 -14q11 -10 20 -20q6 -6 12 -12.5t13 -12.5h176q13 14 25 25q10 11 19 20l15 14q2 2 3.5 4.5t3.5 4.5q4 6 5 12v6q0 3 -0.5 6t-2 6t-3.5 5q-5 5 -9.5 4.5t-8.5 -2.5q-3 -1 -6 -2.5t-6.5 -3t-7.5 -2t-10 -0.5q-10 0 -15.5 5t-10 11t-10.5 11t-16 5
t-16 -5q-3 -2 -6 -5t-5 -6q-6 -6 -11.5 -11t-14.5 -5q-5 0 -9 1.5t-7 4.5l-6 4q-3 3 -5 6t-5 6l-5 5q-6 5 -16 5t-16 -5l-11 -11q-1 -2 -3 -4l-4 -4l-3 -3q-6 -5 -15 -5q-11 0 -18 3t-12 5q-2 1 -3.5 1.5t-3 0.5t-2.5 1q-4 0 -9 -5t-6.5 -11t0.5 -12q0 -2 0.5 -4t1.5 -4z
M559 229zM711 214q-53 0 -90.5 19.5t-37.5 47.5v-26q0 -12 7 -23t21 -20q26 -7 46 -19q26 -6 54 -6q53 0 90.5 19.5t37.5 48.5v27q0 -29 -37.5 -48.5t-90.5 -19.5zM547 -7q-53 0 -90.5 20t-37.5 48v-27q0 -28 37.5 -48t90.5 -20t90.5 20t37.5 48v27q0 -35 -54 -55
q-34 -12 -74 -13zM583 302q0 -28 37.5 -48t90.5 -20t90.5 20t37.5 48t-37.5 48t-90.5 20q-35 0 -64.5 -9t-46.5 -25t-17 -34zM559 229v1q0 1 -0.5 2.5t-0.5 3.5t-0.5 4.5t-0.5 5.5q-2 20 -1.5 35.5t2.5 25.5l2 10q3 18 15.5 32t30 22.5t30 13t24.5 7.5q-6 7 -11.5 13.5
t-11.5 12.5q-18 17 -38 31.5t-42 27.5h-213q-45 -25 -80 -59q-8 -8 -15 -16t-14 -17q-14 -18 -25.5 -40t-18.5 -48q-2 -8 -3.5 -17t-2.5 -18.5t-1 -18.5q0 -17 2 -32t5 -29t8 -26q16 -39 48.5 -65.5t82.5 -41.5q28 -8 62 -11v72q0 9 0.5 15.5t1 11t1.5 7.5t2 5l1 1
q8 22 27.5 38.5t39.5 24t44 11.5t34 4.5t16 0.5zM387 295q0 3 1.5 5.5t4.5 4t6 1.5h43v21h-43q-5 0 -8.5 3.5t-3.5 8.5t3.5 8t8.5 3h38l-45 45q-2 2 -2.5 5t0 5.5t2.5 4.5q3 4 7.5 4t8.5 -4l44 -44q1 1 2 1t2 -1l46 46q7 7 15 0q2 -2 3 -5t0 -6t-3 -5l-45 -46h37
q3 0 5.5 -1.5t4 -4t1.5 -5.5t-1 -5t-2.5 -3.5t-3.5 -2.5t-4 -1h-44v-21h44q4 0 7.5 -3.5t3.5 -8t-3.5 -8t-7.5 -3.5h-44v-27q0 -4 -3.5 -7.5t-7.5 -3.5q-3 0 -6 1.5t-4.5 4t-1.5 5.5v27h-43q-3 0 -5 1t-3.5 2.5t-2.5 3.5t-1 5zM711 72h-13v-1v-2q1 -4 1 -8v-16h12
q34 0 63.5 9t47 24.5t17.5 34.5v27q0 -19 -17.5 -34.5t-47 -24.5t-63.5 -9zM711 119q-6 0 -13 1v-2v-2q1 -4 1 -8v-15q2 -1 4 -1h4h4q53 0 90.5 20t37.5 48v27q0 -18 -17.5 -34t-47 -25t-63.5 -9zM711 139q34 0 63.5 9.5t47 25t17.5 33.5v27q0 -28 -37.5 -47.5t-90.5 -19.5
q-13 0 -26 1q5 -7 8.5 -14t4.5 -14q6 -1 13 -1zM547 41q-26 0 -50 5t-41 14t-27 21.5t-10 26.5v-27q0 -28 37.5 -47.5t90.5 -19.5t90.5 19.5t37.5 47.5v27q0 -28 -37.5 -47.5t-90.5 -19.5zM547 197q-53 0 -90.5 -20t-37.5 -48q0 -19 17 -34.5t46.5 -24.5t64.5 -9
q53 0 90.5 19.5t37.5 48t-37.5 48.5t-90.5 20z" />
    <glyph glyph-name="uniE61B" unicode="&#xe61b;" 
d="M677 239q-44 0 -75 -31t-31 -74.5t31 -74.5t74.5 -31t74.5 31t31 74q0 57 -47 88q-27 17 -58 18zM737 164l-73 -74v0l-2 -1v-1h-1l-3 -1q-1 0 -2 1h-1q-1 0 -1 1h-1l-1 1h-1l-35 37q-7 7 -0.5 13t13.5 0l29 -30l66 67q7 6 13.5 -0.5t-0.5 -12.5zM607 399q0 -7 -4.5 -11
t-10.5 -4h-192q-6 0 -10.5 4t-4.5 11q0 6 4.5 10.5t10.5 4.5h192q6 0 10.5 -4.5t4.5 -10.5zM572 319q0 -7 -4 -11t-11 -4h-157q-6 0 -10.5 4t-4.5 11q0 6 4.5 10.5t10.5 4.5h157q7 0 11 -4.5t4 -10.5zM555 239q0 -6 -4 -10.5t-11 -4.5h-140q-4 0 -7.5 2t-5.5 5.5t-2 7.5
q0 2 0.5 4.5t2 4t3.5 3t4 2.5t5 1h140q14 -2 15 -15zM562 28q0 5 -4 8.5t-9 2.5q-20 -3 -37 -3q-109 0 -186.5 77.5t-77.5 186.5t77.5 186.5t186.5 77.5t186.5 -77.5t77.5 -186.5l-4 -46q-1 -5 2 -9t8 -4h1q3 0 5.5 1t4.5 3t3 4.5t2 4.5q4 26 4 46q0 120 -85 205t-205 85
t-205 -85t-85 -205t85 -205t205 -85l37 3q5 1 9 5t4 9v1z" />
    <glyph glyph-name="uniE61C" unicode="&#xe61c;" 
d="M647 358l-141 -143h-1q-1 -1 -3 -2v-1h-1l-1 -1q-3 -1 -7 -1h-3q-2 0 -4 1v1h-2l-3 3h-1l-69 72q-4 3 -5 7.5t0.5 9t4.5 8.5q5 5 12.5 5t12.5 -6l57 -58l129 130q4 4 8.5 5t9 0t7.5 -5q5 -5 5.5 -12.5t-5.5 -12.5v0zM647 358zM789 298q-11 0 -13 -11q0 -2 -0.5 -6
t-1.5 -14t-2 -17q-13 -71 -59.5 -124t-113 -76.5t-136.5 -10.5q-107 21 -169 111.5t-41.5 197.5t111 169t197.5 42q6 -1 12.5 -3t12 -3.5t10.5 -2.5l7 -3l3 -1q5 -2 9 0.5t5 7.5v1q2 12 -10 16q-1 1 -2.5 1.5t-7 2t-10.5 3t-11.5 3.5t-12.5 3q-77 15 -150 -11t-123.5 -84.5
t-65 -135.5t11 -150t84 -123.5t135.5 -65.5q58 -11 115 1.5t102.5 43.5t78 79.5t43.5 106.5q1 8 2.5 17t1.5 15v5q1 6 -2.5 10t-9.5 5v1z" />
    <glyph glyph-name="uniE61D" unicode="&#xe61d;" 
d="M811 338h-268v261q0 13 -9 22.5t-22 9.5q-9 0 -16 -4.5t-11.5 -11.5t-4.5 -16v-261h-267q-5 0 -10 -1.5t-9 -4.5t-7 -7t-4.5 -9t-1.5 -10q0 -8 4.5 -15.5t11.5 -11.5t16 -4h267v-274q0 -5 2 -10t5 -9t6.5 -7t8.5 -4.5t10 -1.5q13 0 22 9.5t9 22.5v274h268q7 0 12.5 2.5
t10 6.5t7 10t2.5 12q0 13 -9.5 22.5t-22.5 9.5z" />
    <glyph glyph-name="uniE61E" unicode="&#xe61e;" 
d="M850 36h-80v80q0 10 -7 17t-16 7q-5 0 -9.5 -2t-8 -5.5t-5 -8t-1.5 -8.5v-80h-80q-10 0 -17 -7t-7 -17q0 -5 1.5 -9.5t5 -7.5t8 -5t9.5 -2h80v-80q0 -10 7 -17t16.5 -7t16.5 7t7 17v80h80q7 0 12.5 3t8.5 8.5t3 12.5q0 10 -7 17t-17 7zM770 180q-62 84 -161 120
q50 28 80 78t30 109q0 43 -17.5 83t-46 69t-68.5 46t-84 17q-89 0 -152.5 -63t-63.5 -152q0 -57 28 -105.5t75 -77.5q-106 -33 -173 -123t-67 -203v-8v-6h48v6v8q0 79 39.5 147t107.5 107.5t148 39.5q62 0 118 -24.5t97 -67.5h62zM335 487q0 69 49.5 118t118.5 49t118.5 -49
t49.5 -118t-49.5 -118t-118.5 -49t-118.5 49t-49.5 118z" />
    <glyph glyph-name="uniE61F" unicode="&#xe61f;" 
d="M741 319h25v-25h-25v25zM258 319h25v-25h-25v25zM512 535q82 0 145.5 -50.5t82.5 -128.5h1h25v136h-25v-70q-33 63 -94.5 100.5t-134.5 37.5q-92 0 -163 -58t-91 -146h26q19 78 82.5 128.5t145.5 50.5zM740 245q-12 -52 -45 -92.5t-81 -64t-102 -23.5q-82 0 -145.5 50.5
t-82.5 129.5h-1h-25v-137h25v70q33 -63 94.5 -100.5t134.5 -37.5q37 0 71.5 10t64 28.5t53.5 43.5t40.5 56.5t24.5 66.5h-26z" />
    <glyph glyph-name="uniE620" unicode="&#xe620;" 
d="M512 576q-75 0 -139 -37t-101 -101t-37 -139q0 -115 81 -196t196 -81t196 81t81 196q0 23 -3.5 45t-10.5 42.5t-17 40t-22.5 36.5t-27.5 32t-32 27.5t-36.5 22.5t-40 17t-42.5 10.5t-45 3.5zM657 367l-165 -167q-2 -2 -4.5 -3.5t-5.5 -2.5t-6 -1q-4 0 -8 1.5t-7 5.5
l-94 94q-6 7 -6 16q0 6 3 11t8 8t11 3q9 0 15 -6l78 -79l150 151q6 7 15 7t15.5 -6.5t6.5 -15.5q0 -5 -1.5 -9t-4.5 -7z" />
    <glyph glyph-name="uniE621" unicode="&#xe621;" 
d="M666 306q-11 2 -14 6.5t-1 8.5l2 3q1 1 1 2l2 4q2 3 3 6t2 7.5t1.5 9t0 10t-1.5 10.5t-4.5 10.5t-7.5 10.5q-11 10 -27.5 13.5t-32.5 0.5t-31 -7t-24 -8l-10 -4q-8 -2 -13 -2.5t-8 0t-3 4.5v7q0 2 2 10t2 12q0 11 -1.5 20t-7.5 19.5t-16.5 16t-29.5 5t-45 -9.5
q-25 -8 -51 -25.5t-46 -36t-36 -36t-24 -28.5l-9 -11q-11 -15 -19.5 -30t-13 -27t-8 -23t-4.5 -19.5t-1.5 -14.5t0.5 -10v-3q4 -35 21 -62.5t41 -45t56 -29.5t62 -17.5t63 -8.5q54 -4 112.5 9t108.5 44.5t71 75.5q12 26 12 48.5t-8 36.5t-20.5 25t-24 16t-20.5 7zM443 79
q-20 -1 -38.5 0.5t-35.5 5.5t-32.5 10t-28 14t-23 18t-17.5 21t-11 23t-4 25q0 53 55 90.5t135 41.5q52 2 95.5 -10.5t69 -38.5t25.5 -60q0 -13 -4 -26t-11 -25t-17.5 -23t-23.5 -20.5t-28 -17.5t-32 -14t-36 -10t-38 -4zM422 281q-30 -3 -50.5 -16t-28.5 -28.5t-12 -30.5
t-3 -26v-10q0 -3 1 -9t8 -18.5t20 -19.5t26.5 -11t26 -5t25 0t23.5 5t21.5 9.5t19 13t15.5 16.5q12 16 13.5 40t-7.5 45.5t-35 35.5t-63 9zM395 143q-7 -1 -13.5 0.5t-11.5 5t-7.5 8.5t-2.5 11q0 13 9.5 23.5t23.5 12.5q9 1 16 -1t11.5 -6t7.5 -9t3 -12q0 -8 -5 -15t-13 -12
t-18 -6zM457 196q-12 -9 -18 1q-2 3 -2 7t1.5 7.5t4.5 5.5q13 10 20 -1q1 -2 1.5 -5t-0.5 -5.5t-2.5 -5t-4.5 -4.5zM718 349q6 0 11 4t6 10v2q2 24 -1.5 42t-12 28t-19 16.5t-21.5 8.5t-20 2.5t-15 -0.5l-6 -1q-7 0 -12 -5t-5 -12q0 -5 2 -9t6 -6t9 -2q23 4 36 0t18.5 -14
t7 -20.5t-0.5 -18.5l-1 -8q0 -7 5 -12t13 -5zM705 555q-32 8 -86 -3q-1 0 -1.5 -1t-1.5 -1v-1q-19 -5 -19 -24q0 -7 3.5 -13t9.5 -9t12 -3q14 1 23 5q3 3 18.5 1t33.5 -6t39 -19t34 -38q19 -43 8 -83q0 -1 -0.5 -1.5t-1.5 -2.5v-2q-1 -2 -1.5 -4t-1 -4.5t-0.5 -5.5v-5
q0 -9 7 -14t18 -5q10 0 16 6t8 19q14 41 10.5 74t-14.5 57t-31 41t-40 27t-42 15zM705 555z" />
    <glyph glyph-name="uniE622" unicode="&#xe622;" 
d="M640 412q10 0 24 -2q-11 50 -48 90t-91.5 63t-116.5 23q-68 0 -126.5 -28t-92.5 -77t-34 -108q0 -99 102 -169l-26 -75l89 44q4 -1 17.5 -3.5t19 -3.5t15.5 -3t18.5 -2.5t17.5 -0.5q12 0 24 1q-8 27 -8 53q0 82 63 140t153 58zM503 480q10 0 17 -4t11 -11t4 -16.5
t-4 -16.5t-11 -11t-17 -4q-4 0 -9 1t-9 3t-7.5 4.5t-6.5 6t-4.5 8t-1.5 8.5q0 14 12 23t26 9zM326 417q-15 0 -26.5 9t-11.5 22q0 7 3.5 13t8.5 10t12 6.5t14 2.5q14 0 23 -9t9 -23t-9 -22.5t-23 -8.5zM871 217q0 36 -18 70t-47 58t-68.5 38.5t-81.5 14.5q-90 0 -153 -53
t-63 -128.5t63 -128.5t153 -53q25 0 76 13l69 -38l-19 63q89 65 89 144zM586 248q-10 0 -18 8t-8 17t8 17t18 8q7 0 13 -2t10 -5.5t6.5 -8t2.5 -9.5q0 -18 -22 -24q-5 -1 -10 -1zM725 248q-6 0 -12 3.5t-9.5 9.5t-3.5 12q0 3 1 6t2.5 6t4 5.5t5.5 4t6 2.5t6 1q9 0 16.5 -3.5
t11.5 -9.5t4 -12q0 -10 -9 -17.5t-23 -7.5zM725 248z" />
    <glyph glyph-name="uniE623" unicode="&#xe623;" 
d="M511 -43q-69 0 -132.5 27t-109.5 73t-73 109.5t-27 133.5q0 92 46 171t125 125t171 46q56 0 108.5 -17.5t94.5 -49t73.5 -73.5t49 -94.5t17.5 -107.5q0 -139 -96 -238q-96 -100 -234 -105h-13zM511 599q-123 0 -211 -87.5t-88 -211.5t88 -212t211 -88q61 0 116.5 23.5
t96 64t64 96t23.5 116.5q0 81 -40 150t-109 109t-151 40z" />
    <glyph glyph-name="uniE624" unicode="&#xe624;" 
d="M850 346l-322 266q-6 5 -13.5 5t-13.5 -5l-325 -266q-8 -6 -8 -16q0 -8 7 -13t16 -5h72v-250q0 -15 6 -29t16 -23.5t23.5 -15.5t29.5 -6h218q20 0 37 10t27 27t10 37v33v118q0 30 -22 51.5t-52 21.5h-89q-12 0 -23.5 -3.5t-20.5 -10.5t-16 -16t-11 -20t-4 -23v-35v-25v-6
q0 -6 4.5 -10.5t10.5 -4.5q4 0 7.5 2t5.5 5.5t2 7.5l1 66q0 18 13 31t31 13h89q18 0 31 -13t13 -31v-33v-118q0 -12 -6 -22.5t-16 -16.5t-22 -6h-218q-13 0 -23 6t-16 16.5t-6 22.5v260q0 4 -2 8t-4.5 6.5t-6.5 4t-8 1.5l-44 1l286 237l294 -239h-54q-3 0 -6.5 -1t-6 -3
t-4 -4.5t-3 -5.5t-1.5 -6v-266q0 -43 -38 -43h-16q-6 0 -10.5 -4.5t-4.5 -10.5q0 -4 2 -7.5t5.5 -5.5t7.5 -2q3 3 22 -0.5t40.5 15.5t21.5 58v80v175h74q9 0 16 7q5 7 4 15t-7 14z" />
    <glyph glyph-name="uniE625" unicode="&#xe625;" 
d="M399 211l24 -24l202 202l-24 23zM512 577q-115 0 -196 -81.5t-81 -196t81 -195.5t195.5 -81t196 81t81.5 196q0 45 -14 87t-40 76t-60 60t-76 40t-87 14zM512 56q-101 0 -172.5 71.5t-71.5 172.5q0 49 19.5 94t52 77.5t77.5 52t95 19.5q100 0 171.5 -71.5t71.5 -171.5
q0 -40 -12 -77t-34.5 -67t-52.5 -52.5t-67.5 -35t-76.5 -12.5z" />
    <glyph glyph-name="uniE626" unicode="&#xe626;" 
d="M207 167h73v-194h29v194h73v26h-175v-26zM563 182q-24 15 -55 15q-46 0 -75.5 -31t-29.5 -86q0 -29 12.5 -55t37 -41t55.5 -15q29 0 53.5 13.5t38 40t13.5 60.5q0 33 -13 59q-6 13 -15.5 23t-21.5 17zM562 17q-21 -23 -54 -23q-32 0 -53.5 23t-21.5 63q0 49 22 70.5
t53 21.5q22 0 39.5 -11t26.5 -31t9 -47q0 -43 -21 -66zM812 159q-2 5 -5 9t-6 7t-7 6q-11 7 -27 10q-6 1 -14 1.5t-19 0.5h-83v-220h29v89h56q47 0 65 19.5t18 47.5q0 17 -7 30zM777 99q-6 -5 -16 -8t-24 -3h-57v79h56q20 0 27 -2q3 -1 5.5 -2t5 -2.5t4.5 -4t4 -4.5
q7 -10 7 -24q0 -19 -12 -29zM665 446l-165 182l-165 -182l23 -20l127 139v-303h31v303l127 -139z" />
    <glyph glyph-name="uniE627" unicode="&#xe627;" 
d="M607 274q-7 3 -15 -0.5t-11 -10.5q-2 -4 -6 -10.5t-21.5 -17t-39.5 -10.5q-23 0 -39.5 9t-21 15.5t-6.5 12.5q-2 7 -9.5 10.5t-15.5 1.5t-11.5 -9t-1.5 -15q1 -2 2 -4.5t5 -9t9 -12.5t13.5 -13t19 -12.5t25 -8.5t31.5 -3q22 0 40.5 6t29 14t19.5 18.5t11.5 15.5t3.5 8
q2 3 2 7t-1.5 7.5t-4.5 6t-7 4.5zM514 605q-75 0 -138.5 -38t-100.5 -103.5t-37 -142.5q0 -32 7 -63.5t20.5 -60t33.5 -53.5t44 -45l-35 -59q-4 -8 -3.5 -17t6.5 -16q4 -5 9.5 -7.5t11.5 -2.5t11 2l106 47q32 -8 65 -8q114 0 195 83t81 200q0 58 -21.5 110.5t-58.5 90.5
t-88.5 60.5t-107.5 22.5zM514 62q-32 0 -63 9l-4 1l-113 -51q-2 0 -3 0.5t-1 1.5l-2 2q0 1 1 2l46 78l-9 6q-49 37 -76.5 92.5t-27.5 117.5q0 108 74 184t178 76q68 0 126.5 -35t92 -94.5t33.5 -130.5q0 -107 -74 -183t-178 -76z" />
    <glyph glyph-name="uniE628" unicode="&#xe628;" 
d="M656 314l-259 261q-6 6 -14.5 6t-14.5 -6t-6 -14.5t6 -14.5l128 -129l122 -121l-255 -255q0 -4 1 -8.5t5 -7.5q5 -6 13.5 -6t14.5 6l259 260q6 6 6 14.5t-6 14.5z" />
    <glyph glyph-name="uniE629" unicode="&#xe629;" 
d="M725 467q0 9 -5 19l-4 6q-2 3 -5 6q-5 4 -10.5 7.5t-11.5 4.5h-6h-1q-5 0 -10 -1q-5 -2 -11 -6l-10 -10l-11 -11l57 -57l5 5l7 7l3 3l5 5q4 4 6 10q1 2 1.5 4.5t0.5 5.5v2zM474 308q-2 -2 -3.5 -4t-2.5 -4q-2 -3 -4 -8q-1 -1 -2 -3.5t-2 -6.5t-2.5 -8t-2.5 -9
q-1 -2 -1.5 -4t-1 -4.5t-1 -4.5t-1.5 -4l-3 -13q-1 -8 2 -11.5t11 -2.5q1 0 3 1h4q2 1 5 2q8 2 16 5q9 3 17 6q2 1 4 1.5t3.5 1.5t3 1.5t2.5 0.5q4 2 8 5.5t7 6.5l2 2l-57 58l-2 -2zM559 396l-25 -25l-22 -23q-1 -2 -3 -4l-5 -4l-4 -6l-6 -4l-4 -6q-3 -2 -4 -4l57 -58
q5 5 13 14q5 5 35 36l24 25l63 67l-57 58zM772 361q-7 -2 -11.5 -5.5t-3.5 -6.5l1 -5q18 -101 -41 -185.5t-161 -102.5t-187 41t-103 160t41 185.5t161 102.5q10 2 23 2.5t24.5 0t21.5 -1.5t15 -2l6 -1q7 -1 11 3.5t3 11.5v3q-1 5 -4 9t-7.5 6.5t-9.5 3.5q-53 6 -89 -1
q-76 -13 -134 -62t-84 -119.5t-12 -146.5q20 -115 117 -182t213 -46.5t183.5 116.5t46.5 211l-1 5q0 4 -6 5.5t-13 0.5z" />
    <glyph glyph-name="uniE62A" unicode="&#xe62a;" 
d="M737 415h-61q-10 0 -14 -4t-4 -9q0 -6 3 -10t11 -4h77q9 0 20 -3t26 -12.5t24.5 -32t9.5 -55.5q0 -28 -8.5 -49t-21.5 -31t-25 -14t-23 -4h-336q-28 0 -45.5 3.5t-25.5 9.5t-12 17q-15 41 -34 113q-4 16 -11 45q-1 3 -2 8q-6 24 -9 34.5t-9.5 23t-16.5 17t-25 4.5h-38
q-7 0 -11.5 -3t-4.5 -10q0 -12 16 -12h43q11 0 16.5 -12t15.5 -57q8 -30 12 -46q6 -25 12 -46t11.5 -38.5t11.5 -31.5q4 -13 13 -21.5t17.5 -13t23.5 -7t25 -2.5h27h225h112q42 0 71.5 30.5t29.5 94.5q0 36 -11 62.5t-24.5 38.5t-33.5 19t-28 7.5t-19 0.5zM582.5 388
q23.5 0 40 17t16.5 40q0 11 -4.5 22t-12 18.5t-18 12t-22.5 4.5q-23 0 -39.5 -17t-16.5 -40t16.5 -40t40 -17zM582 483q16 0 27 -11t11 -27t-11 -27t-26.5 -11t-26.5 11t-11 27q0 8 3 15t8 12t12 8t14 3zM479.5 479q21.5 0 36.5 15t15 36.5t-15 36.5t-36.5 15t-36.5 -15
t-15 -36.5t15 -36.5t36.5 -15zM479 560q8 0 15 -4t11 -10.5t4 -14.5q0 -6 -2.5 -11.5t-6.5 -9.5t-9.5 -6.5t-11.5 -2.5q-12 0 -20.5 8.5t-8.5 21t8.5 21t20.5 8.5zM403 301q25 0 45.5 12t32.5 33t12 45q0 37 -26.5 63.5t-63.5 26.5t-63.5 -26.5t-26.5 -63.5t26.5 -63.5
t63.5 -26.5zM403 459q28 0 48 -20t20 -48t-20 -48t-48 -20t-48 20t-20 48t20 48t48 20zM424 147q-26 0 -45 -18.5t-19 -45t19 -45t45 -18.5q10 0 20 3.5t17.5 9t13.5 13.5t9.5 17.5t3.5 20.5q0 17 -8.5 31.5t-23.5 23t-32 8.5zM424 42q-17 0 -29.5 12.5t-12.5 29.5
q0 8 3.5 16t9 13.5t13.5 9t16 3.5t16 -3.5t13.5 -9t9 -13.5t3.5 -16q0 -17 -12.5 -29.5t-29.5 -12.5zM692 147q-13 0 -24.5 -5t-20 -13.5t-13.5 -20t-5 -24.5t5 -25t13.5 -20.5t20 -13.5t24.5 -5q27 0 45.5 18.5t18.5 45.5q0 10 -3 20t-9 17.5t-14 13.5t-17.5 9t-20.5 3z
M692 42q-11 0 -20.5 5.5t-15 15t-5.5 21.5q0 4 0.5 7.5t1.5 7t3 6.5t4 5l6 6q2 2 5 4t7 3l6 2q4 1 8 1q9 0 16.5 -3.5t13 -9t9 -13.5t3.5 -16q0 -17 -12 -29.5t-30 -12.5z" />
    <glyph glyph-name="uniE62B" unicode="&#xe62b;" 
d="M512 644q-94 0 -173 -46t-125 -125t-46 -173t46 -173t125 -125t173 -46q70 0 134 27t110 73t73 110t27 134q0 47 -12 91.5t-34.5 82.5t-54 69.5t-69.5 54t-82.5 34.5t-91.5 12zM469 159l-149 124l29 34l117 -98l208 208l31 -32z" />
    <glyph glyph-name="uniE62C" unicode="&#xe62c;" 
d="M511 640q-70 0 -133 -27t-108.5 -72.5t-72.5 -108.5t-27 -133q0 -39 9 -77.5t26 -72t40 -63t52.5 -52.5t63 -40t72 -26t78.5 -9q92 0 170.5 45.5t124 124t45.5 171t-45.5 170.5t-124 124t-170.5 46zM474 522q16 16 38 16t38 -15.5t16 -38t-16 -38.5q-8 -7 -17.5 -11
t-20.5 -4q-22 0 -37.5 15.5t-15.5 37.5q0 23 15 38zM593 61h-165v16q18 3 25 9q10 9 10 33v203v6v6q0 2 -0.5 4t-1.5 4t-1.5 3.5t-1.5 3t-2 2.5q-3 4 -10 6.5t-18 4.5v17h133v-263q0 -22 7 -29q2 -2 5.5 -4t8.5 -3.5t11 -2.5v-16zM593 61z" />
    <glyph glyph-name="uniE62D" unicode="&#xe62d;" 
d="M638 264q36 20 63 51t42 70.5t15 82.5q0 64 -31.5 118t-85.5 85.5t-118 31.5t-118.5 -31.5t-86 -85.5t-31.5 -118q0 -62 30.5 -115t81.5 -84q-115 -37 -188.5 -135t-73.5 -222v-8v-7h53q0 1 -0.5 6.5t-0.5 8.5q0 87 43.5 161t117.5 117t162 43t162 -43t117.5 -117
t43.5 -161q0 -3 -0.5 -8.5t-0.5 -6.5h53v6v9q0 120 -69.5 216t-179.5 136zM339 468.5q0 75.5 54 129t129.5 53.5t129.5 -53.5t54 -129t-54 -129t-129.5 -53.5t-129.5 53.5t-54 129z" />
    <glyph glyph-name="uniE62E" unicode="&#xe62e;" 
d="M451 300l18 9l26 -17l61 53l18 -9l-79 -80zM510 152l-4 2q-4 1 -10 4t-21.5 12t-28.5 20t-28 29t-24 38q-10 21 -14.5 45t-5 36.5t0.5 30.5v8q0 14 8.5 21.5t19.5 7.5q22 0 49.5 10t39.5 22q9 10 21 10q3 0 6 -0.5t7 -3t8 -6.5q31 -32 88 -32q29 0 29 -29v-7
q1 -74 -25 -122q-5 -10 -13 -20t-16.5 -18t-17.5 -15.5t-18.5 -13.5t-17 -11t-14.5 -8l-10 -6q-3 -1 -4 -2zM513 426q-1 0 -2.5 -0.5t-3.5 -2.5q-8 -8 -21 -15.5t-27.5 -12.5t-29 -8t-26.5 -3q-7 0 -7 -7v-8q0 -17 0.5 -28.5t4.5 -34t12 -40.5q11 -25 33 -46t36.5 -29.5
t27.5 -14.5q73 38 97 82q11 20 16 44t5.5 36.5t0.5 31.5v7q0 5 -1 6t-5 1q-67 0 -105 39zM513 3q-123 0 -210 87t-87 210t87 210t210 87q92 0 168 -53l-6 -9q-73 51 -162 51q-58 0 -111 -22.5t-91.5 -61t-61 -91.5t-22.5 -111q0 -118 84 -202t202 -84t201.5 84t83.5 202
q0 94 -55 169l8 7q58 -78 58 -176q0 -124 -88 -211q-88 -85 -208 -86z" />
    <glyph glyph-name="uniE62F" unicode="&#xe62f;" 
d="M300 330l-1 4l-1 4l-1 3v3v4v3l1 4l1 4l2 5l2 5l3 5l3 5v4l1 3v5l2 5l1 5l1 3l2 2l1 3l2 2v4v4v5l1 6l2 8l2 9l2 10l2 5l2 6l2 5l3 6l3 6l3 6l3 6l5 6l2 4l2 3l4 6l5 7l6 7l5 6l7 7l6 6l8 7l6 5l6 5l6 4l7 4l6 3l8 3l7 4l8 2l8 3l8 2l9 2l8 2l9 1l9 2l9 1h9h9h9h10l9 -1
l9 -1l10 -1l9 -2l9 -2l9 -2l9 -3l9 -3l8 -3l9 -4l8 -4l8 -4l8 -5l7 -5l3 -2l3 -2l6 -5l5 -5l6 -5l5 -6l4 -6l5 -5l3 -6l4 -6l4 -6l3 -6l5 -11l2 -6l2 -6l2 -6l2 -6l2 -5l1 -5l3 -11l2 -9l1 -8l1 -7l2 -11v-2l1 -2l4 -5l2 -4l2 -4l2 -4l3 -5l1 -5l2 -6l1 -5v-3l1 -4v-3l-1 -3
v-4l-1 -3l-1 -7l-2 -4l-2 -4v-1l1 -1l2 -3l8 -12l7 -9l3 -6l4 -6l4 -7l4 -8l4 -8l5 -10l2 -6l3 -6l2 -6l2 -5l1 -6l2 -6l2 -10l2 -11l1 -10v-5v-4v-4l-1 -5l-1 -8l-2 -8l-2 -6l-1 -3l-1 -4l-2 -2l-1 -3l-2 -1l-2 -3l-2 -2l-1 -1l-3 -1l-2 -1l-1 -1h-2h-1l-1 1l-4 1l-1 1
l-1 1l-2 2l-2 1l-2 3l-4 4l-2 5l-3 3l-2 4l-4 7l-4 8h-1l-1 -1l-1 -2l-2 -3l-2 -7l-4 -10l-5 -12l-4 -6l-4 -7l-5 -7l-5 -7l-3 -3l-3 -4l-7 -7l1 -1l4 -2l15 -7l7 -4l6 -4l6 -4l6 -5l2 -2l3 -2l2 -3l1 -3l1 -2l1 -4l1 -2v-3v-2v-2l-1 -2l-1 -2v-2l-1 -2l-3 -3l-3 -3l-2 -2
l-1 -2l-4 -3l-5 -3l-5 -2l-5 -3l-7 -2l-3 -1l-3 -1l-7 -1l-7 -2l-7 -1l-8 -2h-8l-9 -1h-8h-9h-8l-10 1h-9l-9 2l-9 1l-10 1l-10 2l-9 2l-9 3l-10 3l-9 3l-5 1l-4 2l-3 1h-2h-4h-4l-9 1l-5 1h-5l-4 -3l-5 -3l-7 -4l-8 -4l-4 -2l-5 -2l-11 -4l-6 -1l-6 -2l-8 -1l-6 -1h-5
l-6 -1h-7h-6h-7h-14h-16l-15 2l-8 1l-7 1l-8 1l-7 1l-7 2l-6 2l-7 2l-5 2l-6 3l-4 3l-5 3l-1 2l-2 1l-2 2l-1 2l-2 2l-1 2l-1 4l-1 2v3v2v2v3l1 2v2v3v3l1 3l1 3l2 4l1 1l2 2l2 3l3 2l2 1l2 2l3 1l3 1l3 2l3 1l4 1l4 1l4 1h5l5 1h1h1v1l-1 1l-2 2l-7 5l-5 4l-5 4l-5 6l-6 6
l-6 7l-3 4l-3 4l-2 5l-3 5l-3 5l-2 6l-3 5l-2 6l-2 6l-2 8h-1v1h-1l-1 -1h-1v-1l-1 -2v-1l-1 -2l-3 -6l-2 -3l-3 -3l-2 -4l-3 -3l-3 -4l-4 -3l-4 -3l-3 -3l-5 -2l-4 -2l-4 -1h-5h-1h-1l-1 2l-1 1l-2 4l-1 2l-1 4l-1 3l-1 4l-1 7l-1 5v5v10l1 11l1 6l1 5l1 7l1 6l2 6l2 7l3 7
l3 6l3 7l3 7l4 7l5 7l5 6l5 7l4 5l5 6l6 6l3 3l3 3l5 4l4 4l8 7l6 4zM300 330z" />
    <glyph glyph-name="uniE630" unicode="&#xe630;" 
d="M826 379q-22 8 -73.5 14t-92.5 9l-41 2q-83 182 -97 203q-7 8 -13 6.5t-9 -6.5q-8 -8 -17.5 -24t-18.5 -35t-19 -39t-18 -38.5t-14.5 -33.5t-9.5 -24l-4 -9l-191 -23q-14 -3 -17 -11t2 -15l4 -6l153 -138q-1 -6 -3.5 -17t-9 -40.5t-12.5 -54t-11.5 -50t-8.5 -36.5
q-3 -17 4 -23t16 -4l8 3l183 105q140 -85 169 -101q27 -12 29 8l-26 169q5 2 18 9.5t17 12.5q-1 -1 -2.5 -1t-3.5 -0.5t-3 -0.5q-8 -2 -29 -5v0q-36 -6 -87 -9.5t-114 -5t-114 3.5q18 14 191 152q-3 2 -13.5 5t-67.5 8.5t-145 6.5q20 4 54.5 8.5t122.5 5.5t155 -14
q-30 -20 -80 -57t-85 -63l-35 -26q2 0 5.5 -0.5t16.5 -2t26 -2.5t34 -2.5t40.5 -2.5t45.5 -1.5t50 0.5l-4 25q14 13 35 33.5t61 59t49 48.5q10 11 8 16.5t-8 7.5v0zM826 379z" />
    <glyph glyph-name="uniE631" unicode="&#xe631;" 
d="M512 3q-80 0 -148.5 40t-108 108.5t-39.5 148.5q0 123 86.5 210t209.5 87q93 0 169 -53l-6 -9q-74 51 -163 51q-77 0 -143 -38.5t-104.5 -104t-38.5 -143.5q0 -118 84 -202t202 -84t202 84t84 202q0 94 -56 169l9 7q57 -78 57 -176q0 -124 -88 -211q-87 -85 -208 -86z
M567 216q-28 0 -48 15.5t-20 37.5t20 37.5t48 15.5q23 0 41.5 -11t24.5 -28h52q-5 22 -21.5 40t-42 28.5t-54.5 10.5q-49 0 -84 -27.5t-35 -65.5t35 -65.5t84 -27.5q17 0 33 3.5t29 10t24 15.5t19 20t11 24h-53q-8 -15 -25 -24t-38 -9zM529 372v52h-74v-95q13 16 32.5 26.5
t41.5 16.5zM445 222h-7q-21 0 -36 12t-15 29t15 29t36 12h2h1v38h-1h-2q-41 0 -70 -23t-29 -56q0 -22 13.5 -40t36.5 -29t49 -11q20 0 38 6q-9 7 -17 15.5t-14 17.5z" />
    <glyph glyph-name="uniE632" unicode="&#xe632;" 
d="M531 555h-45v-220v-1l116 -75l25 37l-96 63v196zM512 710q-89 0 -164 -43.5t-118.5 -118.5t-43.5 -164t43.5 -164t118.5 -118.5t164 -43.5t164 43.5t118.5 118.5t43.5 164q0 66 -25.5 126.5t-69.5 104.5t-104.5 69.5t-126.5 25.5zM512 103q-76 0 -141 37.5t-102.5 102.5
t-37.5 141q0 116 82.5 198.5t198.5 82.5q76 0 141 -37.5t102.5 -102.5t37.5 -141q0 -120 -86 -203q-83 -78 -195 -78z" />
    <glyph glyph-name="uniE633" unicode="&#xe633;" 
d="M561 317l292 292q3 3 4.5 6.5t2 7t0 7t-2 7t-4.5 5.5q-7 7 -16.5 7t-16.5 -7l-292 -292l-293 292q-7 7 -16.5 7t-16.5 -7t-7 -16.5t7 -16.5l292 -292l-292 -293q-7 -7 -7 -16.5t7 -16.5q3 -3 6 -4.5t7 -2t7.5 0t6.5 2t6 4.5l293 292l292 -292q7 -7 16.5 -7t16.5 7t7 16.5
t-7 16.5z" />
  </font>
</defs>
</svg>
